<?xml version="1.0" encoding="utf-8"?>
<!-- Generator: Adobe Illustrator 16.0.0, SVG Export Plug-In . SVG Version: 6.00 Build 0)  -->
<!DOCTYPE svg PUBLIC "-//W3C//DTD SVG 1.1//EN" "http://www.w3.org/Graphics/SVG/1.1/DTD/svg11.dtd">
<svg version="1.1" id="Layer_1" xmlns="http://www.w3.org/2000/svg" xmlns:xlink="http://www.w3.org/1999/xlink" x="0px" y="0px"
	 width="160px" height="25px" viewBox="0 0 160 25" enable-background="new 0 0 160 25" xml:space="preserve">
<g>
	<path fill="#FFFFFF" d="M12.495,19.232c-3.462,0-6.277-2.816-6.277-6.278c0-3.46,2.815-6.278,6.277-6.278
		c1.442,0,2.771,0.494,3.831,1.316l3.673-4.798c-2.08-1.601-4.675-2.563-7.503-2.563C5.688,0.631,0.17,6.148,0.17,12.954
		c0,6.808,5.517,12.325,12.325,12.325c2.965,0,5.685-1.048,7.811-2.792l-3.676-4.82C15.524,18.639,14.079,19.232,12.495,19.232z"/>
</g>
<g>
	<path fill="#3BBDC1" d="M34.542,5.092v3.246h2.789v1.148h-2.789v8.262c0,0.828,0.15,1.416,0.451,1.764s0.701,0.521,1.201,0.521
		c0.172,0,0.338-0.01,0.498-0.029s0.35-0.053,0.568-0.1l0.211,1.043c-0.188,0.094-0.42,0.17-0.697,0.229s-0.553,0.088-0.826,0.088
		c-0.891,0-1.584-0.281-2.08-0.844s-0.744-1.453-0.744-2.672V9.486h-2.191V8.338h2.191V5.092H34.542z"/>
	<path fill="#3BBDC1" d="M41.479,10.494c0.43-0.758,0.994-1.346,1.693-1.764s1.518-0.627,2.455-0.627
		c1.336,0,2.361,0.414,3.076,1.242s1.072,2.113,1.072,3.855v7.816H48.37v-7.84c0-1.375-0.271-2.361-0.814-2.959
		s-1.291-0.896-2.244-0.896c-0.984,0-1.795,0.24-2.432,0.721s-1.104,1.123-1.4,1.928v9.047h-1.406V2.736h1.406V10.494z"/>
	<path fill="#3BBDC1" d="M58.249,21.264c-1.641,0-2.973-0.58-3.996-1.74s-1.535-2.65-1.535-4.471v-0.645
		c0-1.828,0.518-3.336,1.553-4.523s2.318-1.781,3.85-1.781c1.539,0,2.729,0.494,3.568,1.482s1.26,2.318,1.26,3.99v1.09h-8.824v0.387
		c0,1.445,0.365,2.645,1.096,3.598s1.74,1.43,3.029,1.43c0.773,0,1.484-0.127,2.133-0.381s1.188-0.596,1.617-1.025l0.598,0.961
		c-0.445,0.469-1.029,0.857-1.752,1.166S59.256,21.264,58.249,21.264z M58.12,9.299c-1.078,0-1.965,0.387-2.66,1.16
		s-1.102,1.754-1.219,2.941l0.035,0.07h7.266v-0.293c0-1.125-0.295-2.053-0.885-2.783S59.221,9.299,58.12,9.299z"/>
	<path fill="#FFFFFF" d="M70.6,18.99c0.648,0,1.197-0.203,1.646-0.609s0.674-0.922,0.674-1.547h2.578l0.023,0.07
		c0.031,1.188-0.439,2.211-1.412,3.07s-2.143,1.289-3.51,1.289c-1.828,0-3.238-0.604-4.23-1.811s-1.488-2.729-1.488-4.564v-0.41
		c0-1.828,0.496-3.348,1.488-4.559s2.398-1.816,4.219-1.816c1.477,0,2.676,0.443,3.598,1.33s1.367,2.014,1.336,3.381l-0.023,0.07
		H72.92c0-0.695-0.215-1.285-0.645-1.77s-0.992-0.727-1.688-0.727c-1.016,0-1.746,0.393-2.191,1.178s-0.668,1.756-0.668,2.912v0.41
		c0,1.18,0.221,2.158,0.662,2.936S69.569,18.99,70.6,18.99z"/>
	<path fill="#FFFFFF" d="M77.385,14.561c0-1.891,0.518-3.439,1.553-4.646s2.451-1.811,4.248-1.811c1.82,0,3.248,0.604,4.283,1.811
		s1.553,2.756,1.553,4.646v0.246c0,1.906-0.518,3.459-1.553,4.658s-2.455,1.799-4.26,1.799c-1.812,0-3.236-0.602-4.271-1.805
		s-1.553-2.754-1.553-4.652V14.561z M80.233,14.807c0,1.242,0.242,2.25,0.727,3.023c0.484,0.773,1.234,1.16,2.25,1.16
		c0.992,0,1.736-0.389,2.232-1.166s0.744-1.783,0.744-3.018v-0.246c0-1.211-0.248-2.209-0.744-2.994s-1.248-1.178-2.256-1.178
		c-0.992,0-1.732,0.393-2.22,1.178c-0.488,0.785-0.732,1.783-0.732,2.994V14.807z"/>
	<path fill="#FFFFFF" d="M90.979,14.561c0-1.891,0.518-3.439,1.553-4.646s2.451-1.811,4.248-1.811c1.82,0,3.248,0.604,4.283,1.811
		s1.553,2.756,1.553,4.646v0.246c0,1.906-0.518,3.459-1.553,4.658s-2.455,1.799-4.26,1.799c-1.812,0-3.236-0.602-4.271-1.805
		s-1.553-2.754-1.553-4.652V14.561z M93.826,14.807c0,1.242,0.242,2.25,0.727,3.023s1.234,1.16,2.25,1.16
		c0.992,0,1.736-0.389,2.232-1.166s0.744-1.783,0.744-3.018v-0.246c0-1.211-0.248-2.209-0.744-2.994s-1.248-1.178-2.256-1.178
		c-0.992,0-1.732,0.393-2.221,1.178s-0.732,1.783-0.732,2.994V14.807z"/>
	<path fill="#FFFFFF" d="M108.135,21.018h-2.848V2.736h2.848V21.018z"/>
	<path fill="#3BBDC1" d="M120.438,15.029c0,1.898-0.43,3.412-1.289,4.541s-2.043,1.693-3.551,1.693
		c-0.922,0-1.721-0.186-2.396-0.557s-1.225-0.9-1.646-1.588l-0.234,1.898h-1.102V2.736h1.406v7.547
		c0.422-0.695,0.961-1.232,1.617-1.611s1.434-0.568,2.332-0.568c1.523,0,2.715,0.607,3.574,1.822s1.289,2.834,1.289,4.857V15.029z
		 M119.02,14.783c0-1.617-0.312-2.932-0.938-3.943s-1.551-1.518-2.777-1.518c-0.969,0-1.75,0.236-2.344,0.709
		s-1.039,1.084-1.336,1.834v5.801c0.312,0.734,0.775,1.314,1.389,1.74s1.385,0.639,2.314,0.639c1.227,0,2.148-0.453,2.766-1.359
		s0.926-2.125,0.926-3.656V14.783z"/>
	<path fill="#3BBDC1" d="M122.793,14.49c0-1.867,0.512-3.398,1.535-4.594s2.379-1.793,4.066-1.793c1.695,0,3.055,0.598,4.078,1.793
		s1.535,2.727,1.535,4.594v0.387c0,1.875-0.51,3.408-1.529,4.6s-2.373,1.787-4.061,1.787c-1.703,0-3.066-0.596-4.09-1.787
		s-1.535-2.725-1.535-4.6V14.49z M124.199,14.877c0,1.469,0.371,2.703,1.113,3.703s1.777,1.5,3.105,1.5c1.305,0,2.33-0.5,3.076-1.5
		s1.119-2.234,1.119-3.703V14.49c0-1.445-0.375-2.672-1.125-3.68s-1.781-1.512-3.094-1.512s-2.34,0.504-3.082,1.512
		s-1.113,2.234-1.113,3.68V14.877z"/>
	<path fill="#3BBDC1" d="M136.152,14.49c0-1.867,0.512-3.398,1.535-4.594s2.379-1.793,4.066-1.793c1.695,0,3.055,0.598,4.078,1.793
		s1.535,2.727,1.535,4.594v0.387c0,1.875-0.51,3.408-1.529,4.6s-2.373,1.787-4.061,1.787c-1.703,0-3.066-0.596-4.09-1.787
		s-1.535-2.725-1.535-4.6V14.49z M137.559,14.877c0,1.469,0.371,2.703,1.113,3.703s1.777,1.5,3.105,1.5c1.305,0,2.33-0.5,3.076-1.5
		s1.119-2.234,1.119-3.703V14.49c0-1.445-0.375-2.672-1.125-3.68s-1.781-1.512-3.094-1.512s-2.34,0.504-3.082,1.512
		s-1.113,2.234-1.113,3.68V14.877z"/>
	<path fill="#3BBDC1" d="M153.191,14.842h-1.477v6.176h-1.406V2.736h1.406v10.898h1.336l4.863-5.297h1.641l0.023,0.059l-5.203,5.754
		L160,20.959l-0.035,0.059h-1.605L153.191,14.842z"/>
</g>
<line fill="none" stroke="#FFFFFF" stroke-miterlimit="10" x1="25.5" y1="1" x2="25.5" y2="25"/>
<circle fill="#FFFFFF" cx="12.351" cy="12.826" r="2.102"/>
</svg>
