<?xml version="1.0" encoding="utf-8"?>
<!-- Generator: Adobe Illustrator 16.0.0, SVG Export Plug-In . SVG Version: 6.00 Build 0)  -->
<!DOCTYPE svg PUBLIC "-//W3C//DTD SVG 1.1//EN" "http://www.w3.org/Graphics/SVG/1.1/DTD/svg11.dtd">
<svg version="1.1" id="Layer_1" xmlns="http://www.w3.org/2000/svg" xmlns:xlink="http://www.w3.org/1999/xlink" x="0px" y="0px"
	 width="170px" height="35px" viewBox="0 0 170 35" enable-background="new 0 0 170 35" xml:space="preserve">
<g>
	<path fill="#3BBDC1" d="M18.377,25c0,2-0.307,3.812-0.924,4.43c-0.616,0.617-2.071,0.959-4.364,0.959
		c-2.708,0-4.431-0.453-5.17-1.396c-0.738-0.943-1.106-3.132-1.106-6.583c0-3.539,0.322-5.812,0.966-6.828
		c0.645-1.015,2.099-1.52,4.364-1.52c2.351,0,3.904,0.269,4.691,0.805C17.622,15.403,18,16.478,18,18.088V19h3.043
		c0-3-0.608-4.793-1.828-5.786c-1.217-0.993-3.496-1.582-6.835-1.582c-3.397,0-5.7,0.689-6.912,2.162
		c-1.21,1.472-1.816,4.245-1.816,8.364c0,4.393,0.594,7.283,1.785,8.689c1.189,1.407,3.633,2.104,7.33,2.104
		c5.762,0,8.642-2.297,8.642-6.75L21.388,25H18.377z"/>
	<path fill="#3BBDC1" d="M34.092,11.54c-3.784,0-6.241,0.667-7.374,2.001c-1.132,1.334-1.697,4.235-1.697,8.703
		c0,4.467,0.565,7.367,1.697,8.701c1.133,1.334,3.59,2.001,7.374,2.001c3.797,0,6.263-0.667,7.395-2.001s1.698-4.234,1.698-8.701
		c0-4.468-0.566-7.369-1.698-8.703S37.89,11.54,34.092,11.54z M39.069,29.107c-0.638,0.877-2.297,1.315-4.977,1.315
		c-2.666,0-4.317-0.438-4.956-1.315c-0.637-0.877-0.957-3.166-0.957-6.863c0-3.699,0.32-5.988,0.957-6.865
		c0.638-0.877,2.29-1.316,4.956-1.316c2.68,0,4.339,0.439,4.977,1.316c0.638,0.877,0.957,3.166,0.957,6.865
		C40.025,25.941,39.707,28.23,39.069,29.107z"/>
	<path fill="#3BBDC1" d="M56.364,11.54c-3.784,0-6.242,0.667-7.374,2.001s-1.698,4.235-1.698,8.703c0,4.467,0.565,7.367,1.698,8.701
		s3.59,2.001,7.374,2.001c3.797,0,6.263-0.667,7.396-2.001c1.132-1.334,1.698-4.234,1.698-8.701c0-4.468-0.566-7.369-1.698-8.703
		C62.627,12.207,60.161,11.54,56.364,11.54z M61.341,29.107c-0.639,0.877-2.298,1.315-4.977,1.315c-2.666,0-4.318-0.438-4.956-1.315
		c-0.637-0.877-0.957-3.166-0.957-6.863c0-3.699,0.32-5.988,0.957-6.865c0.638-0.877,2.29-1.316,4.956-1.316
		c2.679,0,4.338,0.439,4.977,1.316c0.637,0.877,0.956,3.166,0.956,6.865C62.296,25.941,61.978,28.23,61.341,29.107z"/>
	<rect x="70" y="3" fill="#3BBDC1" width="3" height="30"/>
	<path fill="#FFFFFF" d="M89.685,11.584c-3.44,0-5.657,1.093-6.502,3.284L83,14.824V3h-5v30h5.149l-0.214-4h0.106
		c1.004,3,3.103,3.703,6.299,3.703c3.153,0,5.284-0.67,6.396-2.186c1.109-1.516,1.665-4.381,1.665-8.689
		c0-3.944-0.547-6.624-1.644-8.081C94.66,12.29,92.637,11.584,89.685,11.584z M91.576,27.715c-0.559,0.818-1.842,1.229-3.848,1.229
		c-1.921,0-3.153-0.445-3.698-1.338c-0.544-0.892-0.816-2.91-0.816-6.059c0-4.018,1.598-6.026,4.793-6.026
		c1.834,0,3.027,0.413,3.579,1.24c0.552,0.826,0.828,2.602,0.828,5.331C92.415,25.021,92.135,26.896,91.576,27.715z"/>
	<polygon fill="#FFFFFF" points="157.379,21.89 164.538,12 158.82,12 153.273,20 152,20 152,3 147,3 147,33 152,33 152,23 
		153.209,23 159.895,33 166,33 	"/>
	<path fill="#FFFFFF" d="M114.561,27.386c1.817-0.446,3.624-1.056,5.428-1.718c0.062-0.568,0.11-1.176,0.143-1.824
		c-1.701,0.628-3.406,1.215-5.12,1.662C114.904,26.322,114.755,26.948,114.561,27.386z"/>
	<path fill="#FFFFFF" d="M115.2,21.91c-0.002,0.645-0.016,1.238-0.041,1.782c1.681-0.445,3.354-1.026,5.023-1.644
		c0.001-0.134,0.007-0.256,0.007-0.393c0-0.478-0.01-0.932-0.026-1.372C118.513,20.894,116.861,21.467,115.2,21.91z"/>
	<path fill="#FFFFFF" d="M105.748,22.411c-1.635-0.35-3.286-0.961-4.962-1.941c-0.02,0.509-0.03,1.04-0.03,1.599
		c0,0.054,0.003,0.102,0.003,0.155c1.704,1.001,3.384,1.621,5.045,1.97C105.772,23.656,105.755,23.059,105.748,22.411z"/>
	<path fill="#FFFFFF" d="M106.58,16.664c0.561-0.748,1.863-1.121,3.914-1.121c2.021,0,3.311,0.37,3.869,1.109
		c0.437,0.578,0.7,1.748,0.796,3.495c1.634-0.434,3.26-0.995,4.883-1.593c-0.247-2.415-0.812-4.097-1.702-5.024
		c-1.232-1.283-3.833-1.925-7.803-1.925c-4.086,0-6.736,0.652-7.954,1.958c-0.876,0.938-1.432,2.681-1.678,5.202
		c1.642,0.944,3.261,1.536,4.862,1.877C105.844,18.621,106.112,17.288,106.58,16.664z"/>
	<path fill="#FFFFFF" d="M101.255,27.813c0.31,1.395,0.761,2.423,1.36,3.067c1.24,1.334,3.959,2.001,8.158,2.001
		c3.87,0,6.406-0.718,7.609-2.155c0.579-0.689,1.015-1.756,1.315-3.178C113.689,29.74,107.64,31.309,101.255,27.813z"/>
	<path fill="#FFFFFF" d="M106.538,27.77c-0.236-0.35-0.417-0.945-0.548-1.762c-1.708-0.337-3.434-0.955-5.186-1.979
		c0.031,0.662,0.08,1.275,0.145,1.852c1.933,1.105,3.835,1.746,5.714,2.034C106.621,27.866,106.573,27.821,106.538,27.77z"/>
	<path fill="#FFFFFF" d="M137.988,21.742c0,0.053-0.002,0.099-0.002,0.15c1.629,0.29,3.274,0.853,4.943,1.754
		c0.024-0.556,0.04-1.137,0.043-1.75c-1.698-0.924-3.372-1.495-5.028-1.785C137.973,20.609,137.988,21.148,137.988,21.742z"/>
	<path fill="#FFFFFF" d="M137.184,27.703c-0.538,0.827-1.832,1.24-3.881,1.24c-2.121,0-3.446-0.392-3.977-1.174
		c-0.37-0.546-0.608-1.676-0.721-3.362c-1.623,0.456-3.238,1.023-4.853,1.624c0.274,2.329,0.819,3.957,1.648,4.85
		c1.24,1.334,3.96,2.001,8.159,2.001c3.869,0,6.406-0.718,7.609-2.155c0.844-1.006,1.385-2.808,1.638-5.371
		c-1.641-0.871-3.26-1.418-4.861-1.698C137.854,25.705,137.601,27.061,137.184,27.703z"/>
	<path fill="#FFFFFF" d="M142.454,16.305c-0.307-1.237-0.745-2.17-1.325-2.775c-1.234-1.283-3.835-1.925-7.805-1.925
		c-4.085,0-6.736,0.652-7.953,1.958c-0.668,0.714-1.146,1.906-1.447,3.539C129.971,14.859,136.048,13.084,142.454,16.305z"/>
	<path fill="#FFFFFF" d="M137.15,16.652c0.258,0.341,0.453,0.896,0.592,1.645c1.712,0.277,3.444,0.858,5.201,1.809
		c-0.028-0.665-0.082-1.273-0.149-1.85c-1.981-1.048-3.931-1.618-5.856-1.831C137.016,16.497,137.089,16.571,137.15,16.652z"/>
	<path fill="#FFFFFF" d="M128.529,21.896c0-0.355,0.005-0.693,0.015-1.016c-1.67,0.473-3.332,1.06-4.992,1.68
		c0.007,0.616,0.026,1.197,0.057,1.751c1.639-0.612,3.28-1.19,4.93-1.657C128.534,22.405,128.529,22.16,128.529,21.896z"/>
	<path fill="#FFFFFF" d="M129.098,17.174c-1.816,0.483-3.623,1.122-5.428,1.794c-0.051,0.563-0.084,1.17-0.104,1.811
		c1.696-0.634,3.396-1.234,5.103-1.71C128.763,18.264,128.906,17.634,129.098,17.174z"/>
</g>
</svg>
