<?xml version="1.0" standalone="no"?>
<!DOCTYPE svg PUBLIC "-//W3C//DTD SVG 20010904//EN"
 "http://www.w3.org/TR/2001/REC-SVG-20010904/DTD/svg10.dtd">
<svg version="1.0" xmlns="http://www.w3.org/2000/svg"
 width="700.000000pt" height="700.000000pt" viewBox="0 0 700.000000 700.000000"
 preserveAspectRatio="xMidYMid meet">
<metadata>
Created by potrace 1.11, written by Peter Selinger 2001-2013
</metadata>
<g transform="translate(0.000000,700.000000) scale(0.100000,-0.100000)"
fill="#000000" stroke="none">
<path d="M3809 5946 c-2 -2 -42 -6 -88 -10 -311 -24 -743 -130 -1011 -247 -14
-6 -38 -17 -55 -24 -159 -70 -443 -228 -535 -298 -14 -10 -61 -46 -105 -79
-128 -96 -297 -253 -393 -364 -60 -70 -197 -257 -245 -336 -109 -176 -230
-474 -262 -643 -36 -190 -45 -277 -45 -435 0 -149 7 -238 25 -340 3 -14 7 -40
10 -59 11 -66 57 -227 92 -321 41 -110 138 -309 182 -374 17 -25 31 -48 31
-51 0 -4 14 -24 30 -45 16 -21 30 -41 30 -44 0 -3 6 -14 14 -23 8 -10 45 -56
83 -103 73 -91 241 -264 337 -345 70 -60 265 -204 286 -213 8 -3 17 -8 20 -12
19 -24 289 -170 435 -235 197 -88 551 -198 705 -220 24 -4 47 -8 50 -10 13 -8
291 -44 395 -51 181 -13 570 -7 652 10 12 3 53 8 90 11 37 4 77 9 88 11 11 2
45 8 75 14 30 6 66 12 80 15 14 3 39 8 55 11 122 21 413 112 576 179 196 81
544 269 544 294 0 11 -84 104 -386 425 -37 39 -81 87 -99 106 -61 67 -255 274
-317 339 -35 36 -63 69 -63 74 0 16 -31 5 -82 -29 -59 -39 -288 -154 -307
-154 -7 0 -27 -7 -44 -14 -30 -14 -121 -41 -177 -52 -14 -3 -41 -9 -60 -14
-111 -28 -402 -42 -525 -26 -27 3 -70 9 -94 11 -274 32 -614 179 -823 355
-219 185 -347 388 -418 665 -15 57 -21 322 -9 369 4 17 17 69 29 115 81 318
340 612 696 789 89 45 280 117 337 127 12 3 42 9 67 15 117 27 252 38 420 35
188 -3 205 -5 350 -36 176 -38 360 -108 501 -192 l46 -27 120 127 c67 71 135
144 153 163 18 19 85 91 150 160 65 69 132 141 150 160 18 19 82 88 144 153
193 206 179 188 159 202 -104 69 -368 199 -528 260 -55 21 -109 41 -120 46
-67 26 -375 110 -455 123 -19 3 -46 8 -60 10 -63 12 -170 28 -225 33 -33 3
-78 8 -100 12 -40 7 -569 13 -576 7z"/>
<path d="M3943 3939 c-126 -16 -260 -88 -336 -181 -230 -281 35 -660 449 -643
98 4 164 21 244 61 192 98 279 281 220 463 -35 110 -137 212 -261 262 -30 11
-63 23 -74 25 -11 2 -31 6 -45 9 -52 10 -137 12 -197 4z"/>
</g>
</svg>
